HIERARCHY
ROOT Hips
{
 OFFSET 0.000000 0.000000 0.000000
 CHANNELS 6 Xposition Yposition Zposition Yrotation Xrotation Zrotation
 JOINT Chest
 {
  OFFSET 0.000000 9.588913 -0.003946
  CHANNELS 3 Yrotation Xrotation Zrotation
  JOINT Chest2
  {
   OFFSET 0.000000 9.541882 0.008053
   CHANNELS 3 Yrotation Xrotation Zrotation
   JOINT Chest3
   {
    OFFSET 0.000000 9.501360 0.000000
    CHANNELS 3 Yrotation Xrotation Zrotation
    JOINT Chest4
    {
     OFFSET 0.000000 9.491660 0.000000
     CHANNELS 3 Yrotation Xrotation Zrotation
     JOINT Neck
     {
      OFFSET 0.000000 14.331917 0.000000
      CHANNELS 3 Yrotation Xrotation Zrotation
      JOINT Head
      {
       OFFSET 0.000000 8.884799 0.017034
       CHANNELS 3 Yrotation Xrotation Zrotation
       End Site
       {
        OFFSET 0.000000 16.896195 0.008993
       }
      }
     }
     JOINT RightCollar
     {
      OFFSET -2.923010 9.499495 0.000000
      CHANNELS 3 Yrotation Xrotation Zrotation
      JOINT RightShoulder
      {
       OFFSET -13.795216 0.000000 0.000000
       CHANNELS 3 Yrotation Xrotation Zrotation
       JOINT RightElbow
       {
        OFFSET -30.272209 0.000000 0.000000
        CHANNELS 3 Yrotation Xrotation Zrotation
        JOINT RightWrist
        {
         OFFSET -24.478199 0.000000 0.000000
         CHANNELS 3 Yrotation Xrotation Zrotation
         End Site
         {
          OFFSET -18.090752 0.000000 0.000000
         }
        }
       }
      }
     }
     JOINT LeftCollar
     {
      OFFSET 2.923010 9.499495 0.000000
      CHANNELS 3 Yrotation Xrotation Zrotation
      JOINT LeftShoulder
      {
       OFFSET 13.795216 0.000000 0.000000
       CHANNELS 3 Yrotation Xrotation Zrotation
       JOINT LeftElbow
       {
        OFFSET 30.272209 0.000000 0.000000
        CHANNELS 3 Yrotation Xrotation Zrotation
        JOINT LeftWrist
        {
         OFFSET 24.478199 0.000000 0.000000
         CHANNELS 3 Yrotation Xrotation Zrotation
         End Site
         {
          OFFSET 18.090752 0.000000 0.000000
         }
        }
       }
      }
     }
    }
   }
  }
 }
 JOINT RightHip
 {
  OFFSET -7.826875 0.019532 0.001973
  CHANNELS 3 Yrotation Xrotation Zrotation
  JOINT RightKnee
  {
   OFFSET 0.000000 -40.546152 -0.001885
   CHANNELS 3 Yrotation Xrotation Zrotation
   JOINT RightAnkle
   {
    OFFSET 0.000000 -39.417092 -0.003189
    CHANNELS 3 Yrotation Xrotation Zrotation
    JOINT RightToe
    {
     OFFSET 0.000000 -7.579396 17.243563
     CHANNELS 3 Yrotation Xrotation Zrotation
     End Site
     {
      OFFSET 0.000000 -1.500329 6.694466
     }
    }
   }
  }
 }
 JOINT LeftHip
 {
  OFFSET 7.826875 0.019532 0.001973
  CHANNELS 3 Yrotation Xrotation Zrotation
  JOINT LeftKnee
  {
   OFFSET 0.000000 -40.546152 -0.001885
   CHANNELS 3 Yrotation Xrotation Zrotation
   JOINT LeftAnkle
   {
    OFFSET 0.000000 -39.417092 -0.003189
    CHANNELS 3 Yrotation Xrotation Zrotation
    JOINT LeftToe
    {
     OFFSET 0.000000 -7.579396 17.243563
     CHANNELS 3 Yrotation Xrotation Zrotation
     End Site
     {
      OFFSET 0.000000 -1.500329 6.694466
     }
    }
   }
  }
 }
}
MOTION
Frames: 9
Frame Time: 0.008333
11.739026 88.614197 12.013889 41.642779 -1.267977 0.652787 -1.306843 -0.043287 -6.037586 -0.741310 -0.041785 -3.252242 -0.926174 -0.058801 -4.065199 -0.741311 -0.041786 -3.252244 -2.572340 21.142821 2.407647 -5.348050 3.629372 5.096044 4.431463 -2.309044 -8.558709 16.501660 18.639416 70.709589 70.167817 23.162794 54.699536 29.621665 0.781054 -15.993920 14.235545 -4.807422 10.725909 1.431645 12.190924 -49.943297 -95.431851 15.995094 -67.041106 -13.348427 3.854396 -2.112927 -27.715188 6.993261 -10.369073 -9.642453 -4.038712 -0.073293 -10.871972 2.303120 11.531768 0.166328 -0.429589 0.074671 -19.721969 5.592763 -1.431655 -20.497935 2.998459 1.859744 -13.367867 -6.900025 0.700924 0.021672 0.676638 0.021394
11.853769 88.604772 11.968470 41.608018 -1.307531 0.686486 -1.320413 -0.081138 -6.028409 -0.747987 -0.064899 -3.240603 -0.934317 -0.087725 -4.050601 -0.747987 -0.064899 -3.240604 -2.525561 21.305413 2.425665 -5.260187 3.929117 5.107224 4.397063 -2.230901 -8.533941 16.416921 18.648501 70.638103 70.236596 23.105947 54.712803 29.587550 0.768402 -15.976026 14.229417 -4.765029 10.750916 1.464416 12.224487 -49.986796 -95.371627 16.042884 -67.036531 -13.393627 3.841041 -2.095527 -27.769734 6.959033 -10.517366 -9.634784 -3.999257 -0.070239 -10.811831 2.336398 11.615060 0.147860 -0.440730 0.070615 -19.762429 5.659623 -1.572672 -20.478687 2.931548 1.887037 -13.324327 -6.836984 0.749639 0.021821 0.676812 0.022813
11.962138 88.595209 11.909242 41.509032 -1.262355 0.752806 -1.268949 -0.203263 -6.048971 -0.755393 -0.088170 -3.228464 -0.943373 -0.116852 -4.035379 -0.755394 -0.088171 -3.228465 -2.479647 21.463157 2.441802 -5.173697 4.219818 5.115696 4.359077 -2.152917 -8.509411 16.346931 18.663526 70.570859 70.298051 23.043533 54.711923 29.558597 0.760717 -15.961752 14.223829 -4.720151 10.777482 1.491886 12.263831 -50.031320 -95.304419 16.094449 -67.032638 -13.453101 3.824308 -2.072016 -27.750789 6.776063 -10.671641 -9.624017 -3.888967 -0.066262 -10.704461 2.340073 11.719729 0.099638 -0.437717 0.054404 -19.738070 5.630410 -1.712879 -20.462964 2.856984 1.909540 -13.287468 -6.715460 0.797094 0.022684 0.630901 0.024058
12.072898 88.585965 11.864610 41.472409 -1.295555 0.774806 -1.281684 -0.245703 -6.028952 -0.763422 -0.112064 -3.215880 -0.953202 -0.146760 -4.019597 -0.763423 -0.112065 -3.215882 -2.434598 21.614850 2.454976 -5.088338 4.499176 5.119549 4.317583 -2.074768 -8.485641 16.296580 18.682102 70.510890 70.349394 22.975550 54.693552 29.535043 0.755007 -15.950678 14.221925 -4.672573 10.809676 1.505437 12.306042 -50.080033 -95.223443 16.148966 -67.026730 -13.521193 3.806397 -2.041424 -27.809180 6.744421 -10.808212 -9.608910 -3.849242 -0.063372 -10.610234 2.367174 11.793534 0.101496 -0.450560 0.060653 -19.776967 5.695636 -1.834165 -20.448165 2.784532 1.933861 -13.249611 -6.653336 0.844425 0.023171 0.633018 0.024214
12.182328 88.576795 11.819773 41.438539 -1.325233 0.795169 -1.296901 -0.290547 -6.007886 -0.772566 -0.137076 -3.202683 -0.964417 -0.178075 -4.003047 -0.772567 -0.137077 -3.202686 -2.389645 21.759978 2.464624 -5.002594 4.766159 5.117567 4.273634 -1.993726 -8.464543 16.259304 18.700655 70.459063 70.397532 22.907477 54.665200 29.511228 0.747607 -15.938968 14.225951 -4.620905 10.846111 1.504391 12.348303 -50.131079 -95.127562 16.203508 -67.017590 -13.595379 3.787293 -2.007276 -27.868857 6.712077 -10.937616 -9.586842 -3.815342 -0.060717 -10.538261 2.398993 11.861640 0.101605 -0.461165 0.066331 -19.817696 5.758095 -1.952913 -20.431269 2.711746 1.956806 -13.205666 -6.590723 0.892244 0.024455 0.634710 0.024653
12.290692 88.567646 11.774473 41.407296 -1.351075 0.815499 -1.315118 -0.336731 -5.986139 -0.783406 -0.163181 -3.188374 -0.977746 -0.210766 -3.985101 -0.783408 -0.163181 -3.188376 -2.343218 21.896844 2.470343 -4.913611 5.017505 5.108672 4.229784 -1.910217 -8.448292 16.224323 18.713536 70.407854 70.447858 22.840592 54.636276 29.483670 0.737078 -15.921288 14.236097 -4.568896 10.880570 1.494818 12.389564 -50.180237 -95.021303 16.255338 -67.007908 -13.671392 3.766315 -1.973770 -27.926577 6.679605 -11.060593 -9.562991 -3.789325 -0.056820 -10.492619 2.435445 11.924298 0.099856 -0.468052 0.069827 -19.858240 5.813574 -2.067468 -20.412427 2.641036 1.977324 -13.173857 -6.528004 0.939939 0.024523 0.636069 0.025045
12.398198 88.558438 11.728350 41.375082 -1.372208 0.837929 -1.335079 -0.383870 -5.964614 -0.795766 -0.189669 -3.173268 -0.992973 -0.243948 -3.966157 -0.795767 -0.189669 -3.173270 -2.293810 22.023555 2.473790 -4.819215 5.249721 5.095528 4.186350 -1.826825 -8.433387 16.183998 18.717929 70.348010 70.502047 22.772497 54.610466 29.450416 0.724689 -15.893390 14.252737 -4.521623 10.912619 1.480394 12.425558 -50.228278 -94.910063 16.306416 -67.004269 -13.742878 3.743628 -1.938482 -27.980459 6.646088 -11.185936 -9.545554 -3.769977 -0.050142 -10.433484 2.474169 11.990356 0.100174 -0.475571 0.070511 -19.893098 5.861781 -2.179413 -20.391986 2.570391 1.995504 -13.155439 -6.463482 0.988926 0.023717 0.636836 0.024332
12.504525 88.549059 11.681163 41.341522 -1.386505 0.861998 -1.356745 -0.434032 -5.942212 -0.808620 -0.216931 -3.157528 -1.008813 -0.278100 -3.946416 -0.808621 -0.216932 -3.157530 -2.241777 22.140537 2.476432 -4.720424 5.463714 5.080854 4.140144 -1.742855 -8.418692 16.135266 18.716708 70.279879 70.559504 22.705050 54.585966 29.411934 0.713645 -15.853517 14.273762 -4.478018 10.943159 1.464710 12.454336 -50.276307 -94.800407 16.359624 -67.011013 -13.807524 3.717940 -1.903079 -28.031130 6.608685 -11.311117 -9.533559 -3.756340 -0.041019 -10.366163 2.514185 12.060519 0.102082 -0.483047 0.067639 -19.918599 5.907027 -2.286757 -20.372280 2.489092 2.009558 -13.134774 -6.392284 1.037921 0.026085 0.637455 0.024404
12.608699 88.539382 11.633043 41.314176 -1.391440 0.882932 -1.383880 -0.490620 -5.915044 -0.822150 -0.245015 -3.141013 -1.025496 -0.313280 -3.925702 -0.822151 -0.245016 -3.141015 -2.187684 22.248966 2.479274 -4.618466 5.661763 5.066550 4.089927 -1.658439 -8.407411 16.073882 18.715101 70.210179 70.624063 22.642944 54.565385 29.369253 0.702999 -15.803316 14.292296 -4.436424 10.972817 1.456001 12.478875 -50.321947 -94.696291 16.410843 -67.027579 -13.862889 3.693038 -1.875853 -28.083472 6.566170 -11.426968 -9.523628 -3.746428 -0.030097 -10.311103 2.555001 12.130825 0.104275 -0.489514 0.062187 -19.940956 5.947285 -2.374232 -20.359603 2.389598 2.015097 -13.133517 -6.313973 1.078306 0.041637 0.641858 0.030175
